<?xml version="1.0" standalone="no"?>
<!DOCTYPE svg PUBLIC "-//W3C//DTD SVG 20010904//EN"
 "http://www.w3.org/TR/2001/REC-SVG-20010904/DTD/svg10.dtd">
<svg version="1.0" xmlns="http://www.w3.org/2000/svg"
 width="700.000000pt" height="700.000000pt" viewBox="0 0 700.000000 700.000000"
 preserveAspectRatio="xMidYMid meet">
<metadata>
Created by potrace 1.11, written by Peter Selinger 2001-2013
</metadata>
<g transform="translate(0.000000,700.000000) scale(0.100000,-0.100000)"
fill="#000000" stroke="none">
<path d="M2144 5570 c-12 -4 -31 -21 -43 -36 -20 -25 -21 -37 -21 -230 l0
-202 26 -31 c51 -61 150 -48 180 24 20 49 20 371 0 420 -22 53 -86 78 -142 55z"/>
<path d="M1204 5179 c-27 -14 -54 -60 -54 -94 0 -44 24 -75 157 -207 102 -101
135 -128 164 -133 67 -13 129 38 129 105 0 45 -24 79 -132 182 -166 159 -164
158 -205 157 -21 0 -47 -5 -59 -10z"/>
<path d="M2928 5053 c-171 -169 -186 -205 -120 -275 32 -35 80 -45 118 -25 42
23 281 267 294 301 25 67 -30 136 -108 136 -45 0 -47 -1 -184 -137z"/>
<path d="M2022 4790 c-179 -47 -339 -177 -419 -340 -79 -161 -92 -327 -38
-497 44 -141 162 -290 279 -356 l44 -25 39 40 c125 130 317 218 507 234 l83 7
-9 41 c-15 64 -11 223 7 306 20 91 100 259 150 318 l37 43 -26 33 c-61 81
-215 172 -339 201 -86 20 -226 18 -315 -5z"/>
<path d="M3141 4675 c-179 -39 -358 -180 -439 -345 -23 -47 -49 -112 -57 -145
-22 -85 -19 -235 5 -330 25 -96 25 -100 0 -125 -18 -18 -28 -19 -108 -14 -452
33 -805 -390 -692 -830 57 -226 242 -413 475 -482 55 -17 134 -18 1035 -21
1080 -4 1043 -6 1222 61 299 112 512 367 559 668 7 41 9 118 6 178 -18 354
-266 657 -614 752 -119 32 -305 30 -433 -5 -91 -25 -96 -26 -119 -9 -19 14
-28 36 -42 102 -21 103 -40 157 -79 224 -91 159 -251 281 -421 321 -79 18
-212 18 -298 0z"/>
<path d="M833 4255 c-71 -30 -88 -121 -34 -176 l29 -29 210 0 210 0 31 31 c56
55 38 145 -35 175 -47 20 -366 19 -411 -1z"/>
<path d="M1445 3559 c-32 -18 -265 -251 -281 -281 -24 -46 -18 -86 20 -124 28
-28 41 -34 77 -34 42 0 46 3 191 148 144 143 148 149 148 190 0 57 -39 101
-95 108 -22 2 -49 -1 -60 -7z"/>
</g>
</svg>
